{
  "accessors": [
    {
      "bufferView": 2,
      "componentType": 5126,
      "count": 321,
      "max": [
        295.27569580078125,
        590.5512084960938,
        157.48031616210938
      ],
      "min": [
        0.0,
        0.0,
        0.0
      ],
      "type": "VEC3"
    },
    {
      "bufferView": 2,
      "byteOffset": 3852,
      "componentType": 5126,
      "count": 321,
      "max": [
        1.0,
        1.0,
        1.0
      ],
      "min": [
        -1.0,
        -1.0,
        -1.0
      ],
      "type": "VEC3"
    },
    {
      "bufferView": 1,
      "componentType": 5126,
      "count": 321,
      "max": [
        0.999500036239624,
        0.9946902990341187
      ],
      "min": [
        0.0005000000237487257,
        0.0005000000237487257
      ],
      "type": "VEC2"
    },
    {
      "bufferView": 1,
      "byteOffset": 2568,
      "componentType": 5126,
      "count": 321,
      "max": [
        295.7756042480469,
        295.775634765625
      ],
      "min": [
        -294.775634765625,
        -294.775634765625
      ],
      "type": "VEC2"
    },
    {
      "bufferView": 0,
      "componentType": 5125,
      "count": 483,
      "type": "SCALAR"
    },
    {
      "bufferView": 2,
      "byteOffset": 7704,
      "componentType": 5126,
      "count": 156,
      "max": [
        311.0235595703125,
        0.0,
        157.48031616210938
      ],
      "min": [
        -15.748092651367188,
        -590.5512084960938,
        -5.1627626817207783e-05
      ],
      "type": "VEC3"
    },
    {
      "bufferView": 2,
      "byteOffset": 9576,
      "componentType": 5126,
      "count": 156,
      "max": [
        1.0,
        1.0,
        1.0
      ],
      "min": [
        -1.0,
        -1.0,
        -1.0
      ],
      "type": "VEC3"
    },
    {
      "bufferView": 1,
      "byteOffset": 5136,
      "componentType": 5126,
      "count": 156,
      "max": [
        0.9949251413345337,
        0.999500036239624
      ],
      "min": [
        0.0005000000237487257,
        0.0005000000237487257
      ],
      "type": "VEC2"
    },
    {
      "bufferView": 1,
      "byteOffset": 6384,
      "componentType": 5126,
      "count": 156,
      "max": [
        295.7756652832031,
        289.8700866699219
      ],
      "min": [
        -294.7756042480469,
        -288.8700866699219
      ],
      "type": "VEC2"
    },
    {
      "bufferView": 0,
      "byteOffset": 1932,
      "componentType": 5125,
      "count": 234,
      "type": "SCALAR"
    },
    {
      "bufferView": 2,
      "byteOffset": 11448,
      "componentType": 5126,
      "count": 16108,
      "max": [
        237.81993103027344,
        64.82929992675781,
        19.358428955078125
      ],
      "min": [
        -88.95173645019531,
        -513.910888671875,
        -138.12191772460938
      ],
      "type": "VEC3"
    },
    {
      "bufferView": 2,
      "byteOffset": 204744,
      "componentType": 5126,
      "count": 16108,
      "max": [
        1.0,
        1.0,
        1.0
      ],
      "min": [
        -1.0,
        -1.0,
        -1.0
      ],
      "type": "VEC3"
    },
    {
      "bufferView": 1,
      "byteOffset": 7632,
      "componentType": 5126,
      "count": 16108,
      "max": [
        0.997796356678009,
        0.999500036239624
      ],
      "min": [
        0.0005000000237487257,
        0.0005000000237487257
      ],
      "type": "VEC2"
    },
    {
      "bufferView": 1,
      "byteOffset": 136496,
      "componentType": 5126,
      "count": 16108,
      "max": [
        0.0,
        0.0
      ],
      "min": [
        0.0,
        0.0
      ],
      "type": "VEC2"
    },
    {
      "bufferView": 0,
      "byteOffset": 2868,
      "componentType": 5125,
      "count": 36636,
      "type": "SCALAR"
    },
    {
      "bufferView": 2,
      "byteOffset": 398040,
      "componentType": 5126,
      "count": 28,
      "max": [
        322.8346252441406,
        399.40948486328125,
        133.85829162597656
      ],
      "min": [
        -3.0517578125e-05,
        -175.3936767578125,
        -19.68504524230957
      ],
      "type": "VEC3"
    },
    {
      "bufferView": 2,
      "byteOffset": 398376,
      "componentType": 5126,
      "count": 28,
      "max": [
        1.0,
        0.0,
        0.0
      ],
      "min": [
        -1.0,
        0.0,
        0.0
      ],
      "type": "VEC3"
    },
    {
      "bufferView": 1,
      "byteOffset": 265360,
      "componentType": 5126,
      "count": 28,
      "max": [
        1.0,
        1.0
      ],
      "min": [
        0.0,
        0.0
      ],
      "type": "VEC2"
    },
    {
      "bufferView": 1,
      "byteOffset": 265584,
      "componentType": 5126,
      "count": 28,
      "max": [
        0.0,
        0.0
      ],
      "min": [
        0.0,
        0.0
      ],
      "type": "VEC2"
    },
    {
      "bufferView": 0,
      "byteOffset": 149412,
      "componentType": 5125,
      "count": 42,
      "type": "SCALAR"
    },
    {
      "bufferView": 2,
      "byteOffset": 398712,
      "componentType": 5126,
      "count": 216,
      "max": [
        156.6974334716797,
        17.21759033203125,
        5.947185516357422
      ],
      "min": [
        -7.82922887802124,
        -349.38427734375,
        -8.230224609375
      ],
      "type": "VEC3"
    },
    {
      "bufferView": 2,
      "byteOffset": 401304,
      "componentType": 5126,
      "count": 216,
      "max": [
        0.0001454815937904641,
        0.8988040685653687,
        0.4385605454444885
      ],
      "min": [
        -0.0001873102446552366,
        -0.9026342034339905,
        -1.0
      ],
      "type": "VEC3"
    },
    {
      "bufferView": 1,
      "byteOffset": 265808,
      "componentType": 5126,
      "count": 216,
      "max": [
        0.0,
        0.0
      ],
      "min": [
        0.0,
        0.0
      ],
      "type": "VEC2"
    },
    {
      "bufferView": 1,
      "byteOffset": 267536,
      "componentType": 5126,
      "count": 216,
      "max": [
        0.9641817808151245,
        0.917595624923706
      ],
      "min": [
        0.4407616853713989,
        0.33178603649139404
      ],
      "type": "VEC2"
    },
    {
      "bufferView": 0,
      "byteOffset": 149580,
      "componentType": 5125,
      "count": 594,
      "type": "SCALAR"
    },
    {
      "bufferView": 2,
      "byteOffset": 403896,
      "componentType": 5126,
      "count": 24,
      "max": [
        196.8503875732422,
        0.787401556968689,
        78.74015808105469
      ],
      "min": [
        0.0,
        0.0,
        0.0
      ],
      "type": "VEC3"
    },
    {
      "bufferView": 2,
      "byteOffset": 404184,
      "componentType": 5126,
      "count": 24,
      "max": [
        1.0,
        1.0,
        1.0
      ],
      "min": [
        -1.0,
        -1.0,
        -1.0
      ],
      "type": "VEC3"
    },
    {
      "bufferView": 1,
      "byteOffset": 269264,
      "componentType": 5126,
      "count": 24,
      "max": [
        0.9950344562530518,
        0.9994999766349792
      ],
      "min": [
        0.0005000000237487257,
        0.0005000000237487257
      ],
      "type": "VEC2"
    },
    {
      "bufferView": 1,
      "byteOffset": 269456,
      "componentType": 5126,
      "count": 24,
      "max": [
        1.0,
        1.0
      ],
      "min": [
        0.0,
        0.0
      ],
      "type": "VEC2"
    },
    {
      "bufferView": 0,
      "byteOffset": 151956,
      "componentType": 5125,
      "count": 36,
      "type": "SCALAR"
    }
  ],
  "asset": {
    "extras": {
      "author": "Marcin Lubecki (https://sketchfab.com/Lubus)",
      "license": "SKETCHFAB Standard (https://sketchfab.com/licenses)",
      "source": "https://sketchfab.com/3d-models/moody-lighting-art-gallery-2019-f72385d809234ac7b246ef704afd2c44",
      "title": "Moody Lighting Art Gallery 2019"
    },
    "generator": "Sketchfab-14.38.0",
    "version": "2.0"
  },
  "bufferViews": [
    {
      "buffer": 0,
      "byteLength": 152100,
      "name": "floatBufferViews",
      "target": 34963
    },
    {
      "buffer": 0,
      "byteLength": 269648,
      "byteOffset": 152100,
      "byteStride": 8,
      "name": "floatBufferViews",
      "target": 34962
    },
    {
      "buffer": 0,
      "byteLength": 404472,
      "byteOffset": 421748,
      "byteStride": 12,
      "name": "floatBufferViews",
      "target": 34962
    }
  ],
  "buffers": [
    {
      "byteLength": 826220,
      "uri": "scene.bin"
    }
  ],
  "images": [
    {
      "uri": "textures/celling_baseColor.jpeg"
    },
    {
      "uri": "textures/Plaster_White_Smooth_baseColor.jpeg"
    },
    {
      "uri": "textures/details_baseColor.jpeg"
    },
    {
      "uri": "textures/Glass_Clear_baseColor.png"
    },
    {
      "uri": "textures/Color_M08_baseColor.jpeg"
    }
  ],
  "materials": [
    {
      "name": "celling",
      "pbrMetallicRoughness": {
        "baseColorTexture": {
          "index": 0
        },
        "metallicFactor": 0.0,
        "roughnessFactor": 0.4921875
      }
    },
    {
      "name": "Plaster_White_Smooth",
      "pbrMetallicRoughness": {
        "baseColorTexture": {
          "index": 1
        },
        "metallicFactor": 0.0
      }
    },
    {
      "doubleSided": true,
      "name": "details",
      "pbrMetallicRoughness": {
        "baseColorTexture": {
          "index": 2
        },
        "metallicFactor": 0.0,
        "roughnessFactor": 0.0
      }
    },
    {
      "alphaMode": "BLEND",
      "doubleSided": true,
      "name": "Glass_Clear",
      "pbrMetallicRoughness": {
        "baseColorFactor": [
          1.0,
          1.0,
          1.0,
          0.5078125
        ],
        "baseColorTexture": {
          "index": 3
        },
        "roughnessFactor": 0.0
      }
    },
    {
      "doubleSided": true,
      "emissiveFactor": [
        1.0,
        1.0,
        1.0
      ],
      "name": "light",
      "pbrMetallicRoughness": {
        "metallicFactor": 0.0,
        "roughnessFactor": 0.8929713596
      }
    },
    {
      "doubleSided": true,
      "name": "Color_M08",
      "pbrMetallicRoughness": {
        "baseColorTexture": {
          "index": 4
        },
        "metallicFactor": 0.0,
        "roughnessFactor": 0.8929713596
      }
    }
  ],
  "meshes": [
    {
      "name": "floor_celling_0",
      "primitives": [
        {
          "attributes": {
            "NORMAL": 1,
            "POSITION": 0,
            "TEXCOORD_0": 2,
            "TEXCOORD_1": 3
          },
          "indices": 4,
          "material": 0,
          "mode": 4
        }
      ]
    },
    {
      "name": "walls_Plaster White Smooth_0",
      "primitives": [
        {
          "attributes": {
            "NORMAL": 6,
            "POSITION": 5,
            "TEXCOORD_0": 7,
            "TEXCOORD_1": 8
          },
          "indices": 9,
          "material": 1,
          "mode": 4
        }
      ]
    },
    {
      "name": "details_details_0",
      "primitives": [
        {
          "attributes": {
            "NORMAL": 11,
            "POSITION": 10,
            "TEXCOORD_0": 12,
            "TEXCOORD_1": 13
          },
          "indices": 14,
          "material": 2,
          "mode": 4
        }
      ]
    },
    {
      "name": "glass_Glass Clear_0",
      "primitives": [
        {
          "attributes": {
            "NORMAL": 16,
            "POSITION": 15,
            "TEXCOORD_0": 17,
            "TEXCOORD_1": 18
          },
          "indices": 19,
          "material": 3,
          "mode": 4
        }
      ]
    },
    {
      "name": "light_light_0",
      "primitives": [
        {
          "attributes": {
            "NORMAL": 21,
            "POSITION": 20,
            "TEXCOORD_0": 22,
            "TEXCOORD_1": 23
          },
          "indices": 24,
          "material": 4,
          "mode": 4
        }
      ]
    },
    {
      "name": "paintiing_Color M08_0",
      "primitives": [
        {
          "attributes": {
            "NORMAL": 26,
            "POSITION": 25,
            "TEXCOORD_0": 27,
            "TEXCOORD_1": 28
          },
          "indices": 29,
          "material": 5,
          "mode": 4
        }
      ]
    }
  ],
  "nodes": [
    {
      "children": [
        1
      ],
      "matrix": [
        0.01826775260269642,
        0.0,
        0.0,
        0.0,
        0.0,
        4.056255909533939e-18,
        -0.01826775260269642,
        0.0,
        0.0,
        0.01826775260269642,
        4.056255909533939e-18,
        0.0,
        0.0,
        0.0,
        0.0,
        1.0
      ],
      "name": "Sketchfab_model"
    },
    {
      "children": [
        2
      ],
      "matrix": [
        1.0,
        0.0,
        0.0,
        0.0,
        0.0,
        0.0,
        1.0,
        0.0,
        0.0,
        -1.0,
        0.0,
        0.0,
        0.0,
        0.0,
        0.0,
        1.0
      ],
      "name": "52fb0c8ad2be48eca6d8a6f30872fb21.fbx"
    },
    {
      "children": [
        3,
        5,
        7,
        9,
        11,
        13,
        15
      ],
      "name": "RootNode"
    },
    {
      "children": [
        4
      ],
      "matrix": [
        3.0628121550080323e-07,
        0.0,
        0.9999999999999531,
        0.0,
        -8.74227765734743e-08,
        0.9999999999999962,
        2.6775954278417737e-14,
        0.0,
        -0.9999999999999494,
        -8.74227765734784e-08,
        3.0628121550080323e-07,
        0.0,
        46.90892791748047,
        65.19900512695313,
        -766.19482421875,
        1.0
      ],
      "name": "Camera003"
    },
    {
      "name": "Object_4"
    },
    {
      "children": [
        6
      ],
      "matrix": [
        -0.999999999999996,
        -1.2246468525851679e-16,
        8.742277669594042e-08,
        0.0,
        8.742277669594042e-08,
        -2.220446049250313e-16,
        0.9999999999999962,
        0.0,
        -1.2246467202362698e-16,
        1.0,
        2.220446049250313e-16,
        0.0,
        200.98211669921875,
        0.0,
        -812.1012573242188,
        1.0
      ],
      "name": "floor"
    },
    {
      "mesh": 0,
      "name": "floor_celling_0"
    },
    {
      "children": [
        8
      ],
      "matrix": [
        -0.9999999999999887,
        -1.2246469849340659e-16,
        1.5099580265055077e-07,
        0.0,
        1.5099580265055077e-07,
        -4.440892098500626e-16,
        0.9999999999999887,
        0.0,
        -1.2246464555384738e-16,
        1.0,
        3.3306690738754696e-16,
        0.0,
        200.98211669921875,
        0.0,
        -221.55007934570313,
        1.0
      ],
      "name": "walls"
    },
    {
      "mesh": 1,
      "name": "walls_Plaster White Smooth_0"
    },
    {
      "children": [
        10
      ],
      "matrix": [
        1.0,
        0.0,
        0.0,
        0.0,
        0.0,
        2.220446049250313e-16,
        -1.0,
        0.0,
        0.0,
        1.0,
        2.220446049250313e-16,
        0.0,
        -21.08978271484375,
        138.1219024658203,
        -741.366455078125,
        1.0
      ],
      "name": "details"
    },
    {
      "mesh": 2,
      "name": "details_details_0"
    },
    {
      "children": [
        12
      ],
      "matrix": [
        0.9999999999999885,
        1.2246469849340659e-16,
        -1.5099580265055075e-07,
        -0.0,
        1.5099580265054902e-07,
        -1.5099580286115355e-07,
        0.9999999999999771,
        -0.0,
        2.267726774562492e-14,
        0.9999999999999885,
        1.5099580275013125e-07,
        -0.0,
        -108.072998046875,
        21.65354347229004,
        -628.8335571289063,
        1.0
      ],
      "name": "glass"
    },
    {
      "mesh": 3,
      "name": "glass_Glass Clear_0"
    },
    {
      "children": [
        14
      ],
      "matrix": [
        1.0,
        0.0,
        0.0,
        0.0,
        0.0,
        2.220446049250313e-16,
        -1.0,
        0.0,
        0.0,
        1.0,
        2.220446049250313e-16,
        0.0,
        -21.08978271484375,
        138.1219024658203,
        -741.366455078125,
        1.0
      ],
      "name": "light"
    },
    {
      "mesh": 4,
      "name": "light_light_0"
    },
    {
      "children": [
        16
      ],
      "matrix": [
        -0.999999999999996,
        -1.2246468525851679e-16,
        8.742277669594042e-08,
        0.0,
        8.742277669594042e-08,
        -2.220446049250313e-16,
        0.9999999999999962,
        0.0,
        -1.2246467202362698e-16,
        1.0,
        2.220446049250313e-16,
        0.0,
        151.76950073242188,
        31.496063232421875,
        -222.33749389648438,
        1.0
      ],
      "name": "paintiing"
    },
    {
      "mesh": 5,
      "name": "paintiing_Color M08_0"
    }
  ],
  "samplers": [
    {
      "magFilter": 9729,
      "minFilter": 9987,
      "wrapS": 10497,
      "wrapT": 10497
    },
    {
      "magFilter": 9728,
      "minFilter": 9728,
      "wrapS": 10497,
      "wrapT": 10497
    }
  ],
  "scene": 0,
  "scenes": [
    {
      "name": "Sketchfab_Scene",
      "nodes": [
        0
      ]
    }
  ],
  "textures": [
    {
      "sampler": 0,
      "source": 0
    },
    {
      "sampler": 0,
      "source": 1
    },
    {
      "sampler": 0,
      "source": 2
    },
    {
      "sampler": 0,
      "source": 3
    },
    {
      "sampler": 1,
      "source": 4
    }
  ]
}
