{
	"asset":{
		"generator":"Khronos glTF Blender I/O v4.0.44",
		"version":"2.0"
	},
	"scene":0,
	"scenes":[
		{
			"name":"Scene",
			"nodes":[
				16
			]
		}
	],
	"nodes":[
		{
			"name":"Object_4",
			"translation":[
				-4.361301762401126e-05,
				-4.100934347661678e-06,
				0
			]
		},
		{
			"children":[
				0
			],
			"name":"Camera003",
			"rotation":[
				0,
				-0.7071066498756409,
				0,
				0.70710688829422
			],
			"translation":[
				46.908931732177734,
				65.19901275634766,
				-766.1948852539062
			]
		},
		{
			"mesh":0,
			"name":"details_details_0",
			"translation":[
				0,
				4.2477258830331266e-05,
				8.056391379795969e-06
			]
		},
		{
			"children":[
				2
			],
			"name":"details",
			"rotation":[
				-0.70710688829422,
				0,
				0,
				0.7071066498756409
			],
			"translation":[
				-21.08978271484375,
				138.1219024658203,
				-741.3665161132812
			]
		},
		{
			"mesh":1,
			"name":"floor_celling_0",
			"translation":[
				-9.960982424672693e-06,
				7.860556797822937e-05,
				0
			]
		},
		{
			"children":[
				4
			],
			"name":"floor",
			"rotation":[
				0,
				-0.7071068286895752,
				-0.7071068286895752,
				3.090862321641907e-08
			],
			"translation":[
				200.98211669921875,
				0,
				-812.101318359375
			]
		},
		{
			"mesh":2,
			"name":"glass_Glass Clear_0",
			"translation":[
				-1.1860283848363906e-05,
				-2.287843199155759e-05,
				-2.7617256819212344e-06
			]
		},
		{
			"children":[
				6
			],
			"name":"glass",
			"rotation":[
				0,
				-0.70710688829422,
				0.7071066498756409,
				5.338508657359853e-08
			],
			"scale":[
				-0.9999999403953552,
				-1,
				-1
			],
			"translation":[
				-108.072998046875,
				21.653545379638672,
				-628.8336181640625
			]
		},
		{
			"mesh":3,
			"name":"light_light_0",
			"translation":[
				0,
				4.2477258830331266e-05,
				8.056391379795969e-06
			]
		},
		{
			"children":[
				8
			],
			"name":"light",
			"rotation":[
				-0.70710688829422,
				0,
				0,
				0.7071066498756409
			],
			"translation":[
				-21.08978271484375,
				138.1219024658203,
				-741.3665161132812
			]
		},
		{
			"mesh":4,
			"name":"paintiing_Color M08_0",
			"translation":[
				1.108021751861088e-05,
				2.2410931705962867e-06,
				2.551920260884799e-06
			]
		},
		{
			"children":[
				10
			],
			"name":"paintiing",
			"rotation":[
				0,
				-0.7071068286895752,
				-0.7071068286895752,
				3.090862321641907e-08
			],
			"translation":[
				151.76950073242188,
				31.496065139770508,
				-222.3375244140625
			]
		},
		{
			"mesh":5,
			"name":"walls_Plaster White Smooth_0",
			"translation":[
				-1.8194343283539638e-05,
				-1.5428913684445433e-05,
				0
			]
		},
		{
			"children":[
				12
			],
			"name":"walls",
			"rotation":[
				0,
				-0.7071068286895752,
				-0.7071068286895752,
				5.338507946817117e-08
			],
			"translation":[
				200.98211669921875,
				0,
				-221.55010986328125
			]
		},
		{
			"children":[
				1,
				3,
				5,
				7,
				9,
				11,
				13
			],
			"name":"RootNode"
		},
		{
			"children":[
				14
			],
			"name":"52fb0c8ad2be48eca6d8a6f30872fb21.fbx",
			"rotation":[
				0.70710688829422,
				0,
				0,
				0.7071066498756409
			]
		},
		{
			"children":[
				15
			],
			"name":"Sketchfab_model",
			"rotation":[
				-0.70710688829422,
				0,
				0,
				0.7071066498756409
			],
			"scale":[
				0.01826775260269642,
				0.018267754465341568,
				0.018267754465341568
			]
		}
	],
	"materials":[
		{
			"doubleSided":true,
			"name":"details",
			"pbrMetallicRoughness":{
				"baseColorTexture":{
					"index":0
				},
				"metallicFactor":0,
				"roughnessFactor":0
			}
		},
		{
			"doubleSided":true,
			"name":"graphic novel",
			"pbrMetallicRoughness":{
				"baseColorFactor":[
					0.800000011920929,
					0.800000011920929,
					0.800000011920929,
					1
				],
				"metallicFactor":0,
				"roughnessFactor":0.5
			}
		},
		{
			"alphaMode":"BLEND",
			"doubleSided":true,
			"name":"Glass_Clear",
			"pbrMetallicRoughness":{
				"baseColorFactor":[
					1,
					1,
					1,
					0.5078125
				],
				"baseColorTexture":{
					"index":1
				},
				"roughnessFactor":0
			}
		},
		{
			"doubleSided":true,
			"emissiveFactor":[
				1,
				1,
				1
			],
			"name":"light",
			"pbrMetallicRoughness":{
				"metallicFactor":0,
				"roughnessFactor":0.8929713368415833
			}
		}
	],
	"meshes":[
		{
			"name":"details_details_0",
			"primitives":[
				{
					"attributes":{
						"POSITION":0,
						"NORMAL":1,
						"TEXCOORD_0":2,
						"TEXCOORD_1":3
					},
					"indices":4,
					"material":0
				}
			]
		},
		{
			"name":"floor_celling_0",
			"primitives":[
				{
					"attributes":{
						"POSITION":5,
						"NORMAL":6,
						"TEXCOORD_0":7,
						"TEXCOORD_1":8
					},
					"indices":9,
					"material":1
				}
			]
		},
		{
			"name":"glass_Glass Clear_0",
			"primitives":[
				{
					"attributes":{
						"POSITION":10,
						"NORMAL":11,
						"TEXCOORD_0":12,
						"TEXCOORD_1":13
					},
					"indices":14,
					"material":2
				}
			]
		},
		{
			"name":"light_light_0",
			"primitives":[
				{
					"attributes":{
						"POSITION":15,
						"NORMAL":16,
						"TEXCOORD_0":17,
						"TEXCOORD_1":18
					},
					"indices":19,
					"material":3
				}
			]
		},
		{
			"name":"paintiing_Color M08_0",
			"primitives":[
				{
					"attributes":{
						"POSITION":20,
						"NORMAL":21,
						"TEXCOORD_0":22,
						"TEXCOORD_1":23
					},
					"indices":24,
					"material":1
				}
			]
		},
		{
			"name":"walls_Plaster White Smooth_0",
			"primitives":[
				{
					"attributes":{
						"POSITION":25,
						"NORMAL":26,
						"TEXCOORD_0":27,
						"TEXCOORD_1":28
					},
					"indices":29,
					"material":1
				}
			]
		}
	],
	"textures":[
		{
			"sampler":0,
			"source":0
		},
		{
			"sampler":0,
			"source":1
		}
	],
	"images":[
		{
			"mimeType":"image/jpeg",
			"name":"details_baseColor.jpeg",
			"uri":"../Downloads/moody_lighting_art_gallery_2019/textures/details_baseColor.jpeg"
		},
		{
			"mimeType":"image/png",
			"name":"Glass_Clear_baseColor.png",
			"uri":"../Downloads/moody_lighting_art_gallery_2019/textures/Glass_Clear_baseColor.png"
		}
	],
	"accessors":[
		{
			"bufferView":0,
			"componentType":5126,
			"count":17302,
			"max":[
				237.81993103027344,
				64.82929992675781,
				19.358428955078125
			],
			"min":[
				-88.95173645019531,
				-513.910888671875,
				-138.12191772460938
			],
			"type":"VEC3"
		},
		{
			"bufferView":1,
			"componentType":5126,
			"count":17302,
			"type":"VEC3"
		},
		{
			"bufferView":2,
			"componentType":5126,
			"count":17302,
			"type":"VEC2"
		},
		{
			"bufferView":3,
			"componentType":5126,
			"count":17302,
			"type":"VEC2"
		},
		{
			"bufferView":4,
			"componentType":5123,
			"count":36636,
			"type":"SCALAR"
		},
		{
			"bufferView":5,
			"componentType":5126,
			"count":321,
			"max":[
				295.27569580078125,
				590.5512084960938,
				157.48031616210938
			],
			"min":[
				0,
				0,
				0
			],
			"type":"VEC3"
		},
		{
			"bufferView":6,
			"componentType":5126,
			"count":321,
			"type":"VEC3"
		},
		{
			"bufferView":7,
			"componentType":5126,
			"count":321,
			"type":"VEC2"
		},
		{
			"bufferView":8,
			"componentType":5126,
			"count":321,
			"type":"VEC2"
		},
		{
			"bufferView":9,
			"componentType":5123,
			"count":483,
			"type":"SCALAR"
		},
		{
			"bufferView":10,
			"componentType":5126,
			"count":28,
			"max":[
				322.8346252441406,
				399.40948486328125,
				133.85829162597656
			],
			"min":[
				-3.0517578125e-05,
				-175.3936767578125,
				-19.68504524230957
			],
			"type":"VEC3"
		},
		{
			"bufferView":11,
			"componentType":5126,
			"count":28,
			"type":"VEC3"
		},
		{
			"bufferView":12,
			"componentType":5126,
			"count":28,
			"type":"VEC2"
		},
		{
			"bufferView":13,
			"componentType":5126,
			"count":28,
			"type":"VEC2"
		},
		{
			"bufferView":14,
			"componentType":5123,
			"count":42,
			"type":"SCALAR"
		},
		{
			"bufferView":15,
			"componentType":5126,
			"count":340,
			"max":[
				156.6974334716797,
				17.21759033203125,
				5.947185516357422
			],
			"min":[
				-7.82922887802124,
				-349.38427734375,
				-8.230224609375
			],
			"type":"VEC3"
		},
		{
			"bufferView":16,
			"componentType":5126,
			"count":340,
			"type":"VEC3"
		},
		{
			"bufferView":17,
			"componentType":5126,
			"count":340,
			"type":"VEC2"
		},
		{
			"bufferView":18,
			"componentType":5126,
			"count":340,
			"type":"VEC2"
		},
		{
			"bufferView":19,
			"componentType":5123,
			"count":594,
			"type":"SCALAR"
		},
		{
			"bufferView":20,
			"componentType":5126,
			"count":24,
			"max":[
				196.8503875732422,
				0.787401556968689,
				78.74015808105469
			],
			"min":[
				0,
				0,
				0
			],
			"type":"VEC3"
		},
		{
			"bufferView":21,
			"componentType":5126,
			"count":24,
			"type":"VEC3"
		},
		{
			"bufferView":22,
			"componentType":5126,
			"count":24,
			"type":"VEC2"
		},
		{
			"bufferView":23,
			"componentType":5126,
			"count":24,
			"type":"VEC2"
		},
		{
			"bufferView":24,
			"componentType":5123,
			"count":36,
			"type":"SCALAR"
		},
		{
			"bufferView":25,
			"componentType":5126,
			"count":156,
			"max":[
				311.0235595703125,
				0,
				157.48031616210938
			],
			"min":[
				-15.748092651367188,
				-590.5512084960938,
				-5.1627626817207783e-05
			],
			"type":"VEC3"
		},
		{
			"bufferView":26,
			"componentType":5126,
			"count":156,
			"type":"VEC3"
		},
		{
			"bufferView":27,
			"componentType":5126,
			"count":156,
			"type":"VEC2"
		},
		{
			"bufferView":28,
			"componentType":5126,
			"count":156,
			"type":"VEC2"
		},
		{
			"bufferView":29,
			"componentType":5123,
			"count":234,
			"type":"SCALAR"
		}
	],
	"bufferViews":[
		{
			"buffer":0,
			"byteLength":207624,
			"byteOffset":0,
			"target":34962
		},
		{
			"buffer":0,
			"byteLength":207624,
			"byteOffset":207624,
			"target":34962
		},
		{
			"buffer":0,
			"byteLength":138416,
			"byteOffset":415248,
			"target":34962
		},
		{
			"buffer":0,
			"byteLength":138416,
			"byteOffset":553664,
			"target":34962
		},
		{
			"buffer":0,
			"byteLength":73272,
			"byteOffset":692080,
			"target":34963
		},
		{
			"buffer":0,
			"byteLength":3852,
			"byteOffset":765352,
			"target":34962
		},
		{
			"buffer":0,
			"byteLength":3852,
			"byteOffset":769204,
			"target":34962
		},
		{
			"buffer":0,
			"byteLength":2568,
			"byteOffset":773056,
			"target":34962
		},
		{
			"buffer":0,
			"byteLength":2568,
			"byteOffset":775624,
			"target":34962
		},
		{
			"buffer":0,
			"byteLength":966,
			"byteOffset":778192,
			"target":34963
		},
		{
			"buffer":0,
			"byteLength":336,
			"byteOffset":779160,
			"target":34962
		},
		{
			"buffer":0,
			"byteLength":336,
			"byteOffset":779496,
			"target":34962
		},
		{
			"buffer":0,
			"byteLength":224,
			"byteOffset":779832,
			"target":34962
		},
		{
			"buffer":0,
			"byteLength":224,
			"byteOffset":780056,
			"target":34962
		},
		{
			"buffer":0,
			"byteLength":84,
			"byteOffset":780280,
			"target":34963
		},
		{
			"buffer":0,
			"byteLength":4080,
			"byteOffset":780364,
			"target":34962
		},
		{
			"buffer":0,
			"byteLength":4080,
			"byteOffset":784444,
			"target":34962
		},
		{
			"buffer":0,
			"byteLength":2720,
			"byteOffset":788524,
			"target":34962
		},
		{
			"buffer":0,
			"byteLength":2720,
			"byteOffset":791244,
			"target":34962
		},
		{
			"buffer":0,
			"byteLength":1188,
			"byteOffset":793964,
			"target":34963
		},
		{
			"buffer":0,
			"byteLength":288,
			"byteOffset":795152,
			"target":34962
		},
		{
			"buffer":0,
			"byteLength":288,
			"byteOffset":795440,
			"target":34962
		},
		{
			"buffer":0,
			"byteLength":192,
			"byteOffset":795728,
			"target":34962
		},
		{
			"buffer":0,
			"byteLength":192,
			"byteOffset":795920,
			"target":34962
		},
		{
			"buffer":0,
			"byteLength":72,
			"byteOffset":796112,
			"target":34963
		},
		{
			"buffer":0,
			"byteLength":1872,
			"byteOffset":796184,
			"target":34962
		},
		{
			"buffer":0,
			"byteLength":1872,
			"byteOffset":798056,
			"target":34962
		},
		{
			"buffer":0,
			"byteLength":1248,
			"byteOffset":799928,
			"target":34962
		},
		{
			"buffer":0,
			"byteLength":1248,
			"byteOffset":801176,
			"target":34962
		},
		{
			"buffer":0,
			"byteLength":468,
			"byteOffset":802424,
			"target":34963
		}
	],
	"samplers":[
		{
			"magFilter":9729,
			"minFilter":9987
		}
	],
	"buffers":[
		{
			"byteLength":802892,
			"uri":"halftone.bin"
		}
	]
}
